# xmcd
#
# Track frame offsets: 
#        150
#        29654
#        48850
#        72440
#        92922
#        113524
#        129208
#        152376
#        167416
#        186818
#
# Disc length: 2663 seconds
#
# Revision: 0
# Processed by: cddbd v1.5.2PL0 Copyright (c) Steve Scherf et al.
# Submitted via: ExactAudioCopy v0.99pb5
#
DISCID=750a650a
DTITLE=Samuel Katarro - The Halfduck Mystery
DYEAR=2010
DGENRE=
TTITLE0=Rustling
TTITLE1=Pink Clouds Over The Semipapero (Includes First English Lesson
TTITLE1=)
TTITLE2=Pop Skull
TTITLE3=The First Years of Bobby Bunny
TTITLE4=9V
TTITLE5=Three Minutes in California
TTITLE6='s Hertogenbosch Blues Festival
TTITLE7=I Am the Musonator
TTITLE8=You're an Animal
TTITLE9=Sudden Death (Includes Last English Lesson)
EXTD=
EXTT0=
EXTT1=
EXTT2=
EXTT3=
EXTT4=
EXTT5=
EXTT6=
EXTT7=
EXTT8=
EXTT9=
PLAYORDER=
